<?xml version="1.0" encoding="UTF-8" standalone="no"?>
<!DOCTYPE svg PUBLIC "-//W3C//DTD SVG 1.1//EN" "http://www.w3.org/Graphics/SVG/1.1/DTD/svg11.dtd">
<svg width="100%" height="100%" viewBox="0 0 807 334" version="1.1" xmlns="http://www.w3.org/2000/svg" xmlns:xlink="http://www.w3.org/1999/xlink" xml:space="preserve" xmlns:serif="http://www.serif.com/" style="fill-rule:evenodd;clip-rule:evenodd;stroke-linejoin:round;stroke-miterlimit:1.5;">
    <g transform="matrix(1,0,0,1,-590.689944,-2905.306476)">
        <g transform="matrix(2.281179,0,0,3.412745,-1663.78943,-5690.201622)">
            <path d="M1028.769,2616.336C1030.019,2616.336 1030.569,2615.786 1030.569,2614.536L1030.569,2596.936L1033.519,2602.386C1034.119,2603.536 1034.869,2603.986 1036.169,2603.986L1038.169,2603.986C1039.469,2603.986 1040.219,2603.536 1040.819,2602.386L1043.769,2596.936L1043.769,2614.536C1043.769,2615.786 1044.269,2616.336 1045.569,2616.336L1053.269,2616.336C1054.519,2616.336 1055.069,2615.786 1055.069,2614.536L1055.069,2582.136C1055.069,2580.886 1054.519,2580.336 1053.269,2580.336L1045.169,2580.336C1044.119,2580.336 1043.469,2580.736 1042.869,2581.836L1038.419,2589.986C1038.069,2590.586 1037.919,2590.836 1037.519,2590.836L1037.069,2590.836C1036.669,2590.836 1036.519,2590.586 1036.169,2589.986L1031.669,2581.836C1031.069,2580.736 1030.419,2580.336 1029.369,2580.336L1021.319,2580.336C1020.069,2580.336 1019.519,2580.886 1019.519,2582.136L1019.519,2614.536C1019.519,2615.786 1020.069,2616.336 1021.319,2616.336L1028.769,2616.336Z" style="fill:white;fill-rule:nonzero;"/>
        </g>
        <g transform="matrix(2.281179,0,0,3.412745,-1663.78943,-5690.201622)">
            <path d="M1084.469,2616.336C1085.719,2616.336 1086.269,2615.786 1086.269,2614.536L1086.269,2608.686C1086.269,2607.436 1085.719,2606.886 1084.469,2606.886L1070.669,2606.886L1070.669,2602.586L1080.419,2602.586C1081.669,2602.586 1082.219,2602.036 1082.219,2600.786L1082.219,2595.436C1082.219,2594.186 1081.669,2593.636 1080.419,2593.636L1070.669,2593.636L1070.669,2589.786L1084.469,2589.786C1085.719,2589.786 1086.269,2589.236 1086.269,2587.986L1086.269,2582.136C1086.269,2580.886 1085.719,2580.336 1084.469,2580.336L1061.269,2580.336C1060.019,2580.336 1059.469,2580.886 1059.469,2582.136L1059.469,2614.536C1059.469,2615.786 1060.019,2616.336 1061.269,2616.336L1084.469,2616.336Z" style="fill:white;fill-rule:nonzero;"/>
        </g>
        <g transform="matrix(2.281179,0,0,3.412745,-1663.78943,-5690.201622)">
            <path d="M1106.669,2616.336C1107.919,2616.336 1108.469,2615.786 1108.469,2614.536L1108.469,2589.986L1115.819,2589.986C1117.069,2589.986 1117.619,2589.436 1117.619,2588.186L1117.619,2582.136C1117.619,2580.886 1117.069,2580.336 1115.819,2580.336L1089.419,2580.336C1088.169,2580.336 1087.619,2580.886 1087.619,2582.136L1087.619,2588.186C1087.619,2589.436 1088.169,2589.986 1089.419,2589.986L1096.769,2589.986L1096.769,2614.536C1096.769,2615.786 1097.319,2616.336 1098.569,2616.336L1106.669,2616.336Z" style="fill:white;fill-rule:nonzero;"/>
        </g>
        <g transform="matrix(2.281179,0,0,3.412745,-1663.78943,-5690.201622)">
            <path d="M1129.519,2616.336C1130.769,2616.336 1131.319,2615.786 1131.319,2614.536L1131.319,2603.436L1139.669,2603.436L1139.669,2614.536C1139.669,2615.786 1140.219,2616.336 1141.469,2616.336L1149.219,2616.336C1150.469,2616.336 1151.019,2615.786 1151.019,2614.536L1151.019,2582.136C1151.019,2580.886 1150.469,2580.336 1149.219,2580.336L1141.469,2580.336C1140.219,2580.336 1139.669,2580.886 1139.669,2582.136L1139.669,2592.986L1131.319,2592.986L1131.319,2582.136C1131.319,2580.886 1130.769,2580.336 1129.519,2580.336L1121.769,2580.336C1120.519,2580.336 1119.969,2580.886 1119.969,2582.136L1119.969,2614.536C1119.969,2615.786 1120.519,2616.336 1121.769,2616.336L1129.519,2616.336Z" style="fill:white;fill-rule:nonzero;"/>
        </g>
        <g transform="matrix(0.97877,0,0,0.97877,-262.042771,321.129559)">
            <path d="M1124,2653L1063,2653L1004,2770.083L1004,2773" style="fill:none;stroke:white;stroke-width:30.65px;"/>
        </g>
        <g transform="matrix(0.97877,0,0,0.97877,-262.042771,321.129559)">
            <path d="M1004,2713L884,2713L944,2833L1124,2833" style="fill:none;stroke:white;stroke-width:30.65px;"/>
        </g>
        <g transform="matrix(0.97877,0,0,0.97877,-262.042771,321.129559)">
            <path d="M1064,2713L1124,2713" style="fill:none;stroke:white;stroke-width:30.65px;"/>
        </g>
        <g transform="matrix(0.97877,0,0,0.97877,-262.042771,321.129559)">
            <path d="M1064,2746L1064,2803" style="fill:none;stroke:white;stroke-width:30.65px;"/>
        </g>
        <g transform="matrix(0.97877,0,0,0.97877,-249.042771,314.767554)">
            <path d="M944,2743L944,2773.239" style="fill:none;stroke:white;stroke-width:30.65px;"/>
        </g>
        <g transform="matrix(0.97877,0,0,0.97877,-320.768974,321.129559)">
            <path d="M1206,2713L1244,2713L1302,2833L1740.305,2833L1207,2833" style="fill:none;stroke:white;stroke-width:30.65px;"/>
        </g>
        <g transform="matrix(0.249808,0,0,0.11968,961.891143,2939.70752)">
            <path d="M115.973,1026.561C127.387,1026.561 132.41,1010.877 132.41,975.233L132.41,473.359L159.349,628.769C164.828,661.562 171.676,674.394 183.548,674.394L201.811,674.394C213.682,674.394 220.531,661.562 226.01,628.769L252.949,473.359L252.949,975.233C252.949,1010.877 257.514,1026.561 269.386,1026.561L339.7,1026.561C351.115,1026.561 356.137,1010.877 356.137,975.233L356.137,51.328C356.137,15.684 351.115,0 339.7,0L265.733,0C256.145,0 250.209,11.406 244.73,42.773L204.094,275.175C200.898,292.285 199.528,299.414 195.875,299.414L191.766,299.414C188.113,299.414 186.744,292.285 183.548,275.175L142.455,42.773C136.976,11.406 131.04,0 121.452,0L47.942,0C36.527,0 31.504,15.684 31.504,51.328L31.504,975.233C31.504,1010.877 36.527,1026.561 47.942,1026.561L115.973,1026.561Z" style="fill:white;fill-rule:nonzero;"/>
        </g>
        <g transform="matrix(0.249808,0,0,0.11968,961.891143,2939.70752)">
            <path d="M624.61,1026.561C636.024,1026.561 641.047,1010.877 641.047,975.233L641.047,808.417C641.047,772.772 636.024,757.089 624.61,757.089L498.592,757.089L498.592,634.472L587.626,634.472C599.041,634.472 604.063,618.788 604.063,583.144L604.063,430.585C604.063,394.941 599.041,379.257 587.626,379.257L498.592,379.257L498.592,269.472L624.61,269.472C636.024,269.472 641.047,253.789 641.047,218.144L641.047,51.328C641.047,15.684 636.024,0 624.61,0L412.754,0C401.339,0 396.317,15.684 396.317,51.328L396.317,975.233C396.317,1010.877 401.339,1026.561 412.754,1026.561L624.61,1026.561Z" style="fill:white;fill-rule:nonzero;"/>
        </g>
        <g transform="matrix(0.249808,0,0,0.11968,961.891143,2939.70752)">
            <path d="M827.334,1026.561C838.748,1026.561 843.771,1010.877 843.771,975.233L843.771,275.175L910.889,275.175C922.304,275.175 927.326,259.492 927.326,223.847L927.326,51.328C927.326,15.684 922.304,0 910.889,0L669.812,0C658.397,0 653.375,15.684 653.375,51.328L653.375,223.847C653.375,259.492 658.397,275.175 669.812,275.175L736.93,275.175L736.93,975.233C736.93,1010.877 741.952,1026.561 753.367,1026.561L827.334,1026.561Z" style="fill:white;fill-rule:nonzero;"/>
        </g>
        <g transform="matrix(0.249808,0,0,0.11968,961.891143,2939.70752)">
            <path d="M957.917,1026.561L1152.423,1026.561C1163.838,1026.561 1168.86,1010.877 1168.86,975.233L1168.86,805.565C1168.86,769.921 1163.838,754.237 1152.423,754.237L1108.134,754.237L1108.134,275.175L1152.423,275.175C1163.838,275.175 1168.86,259.492 1168.86,223.847L1168.86,51.328C1168.86,15.684 1163.838,0 1152.423,0L957.917,0C946.503,0 941.48,15.684 941.48,51.328L941.48,223.847C941.48,259.492 946.503,275.175 957.917,275.175L1003.119,275.175L1003.119,754.237L957.917,754.237C946.503,754.237 941.48,769.921 941.48,805.565L941.48,975.233C941.48,1010.877 946.503,1026.561 957.917,1026.561Z" style="fill:white;fill-rule:nonzero;"/>
        </g>
        <g transform="matrix(0.249808,0,0,0.11968,961.891143,2939.70752)">
            <path d="M1420.896,1026.561C1432.31,1026.561 1437.333,1010.877 1437.333,975.233L1437.333,805.565C1437.333,769.921 1432.31,754.237 1420.896,754.237L1329.122,754.237C1309.945,754.237 1301.27,732.851 1301.27,685.8L1301.27,346.464C1301.27,297.988 1309.945,275.175 1329.122,275.175L1420.896,275.175C1432.31,275.175 1437.333,259.492 1437.333,223.847L1437.333,51.328C1437.333,15.684 1432.31,0 1420.896,0L1309.489,0C1232.782,0 1197.168,92.676 1197.168,292.285L1197.168,735.702C1197.168,933.885 1232.782,1026.561 1309.489,1026.561L1420.896,1026.561Z" style="fill:white;fill-rule:nonzero;"/>
        </g>
        <g transform="matrix(0.249808,0,0,0.11968,961.891143,2939.70752)">
            <path d="M1585.266,299.414C1587.549,282.304 1590.289,275.175 1593.942,275.175L1605.356,275.175C1609.009,275.175 1611.748,282.304 1614.031,299.414L1635.491,516.132L1563.807,516.132L1585.266,299.414ZM1559.241,975.233L1559.241,775.624L1640.057,775.624L1640.057,975.233C1640.057,1010.877 1645.536,1026.561 1657.864,1026.561L1726.808,1026.561C1738.223,1026.561 1743.245,1010.877 1743.245,975.233L1743.245,598.827C1743.245,541.796 1737.766,470.507 1725.438,370.703L1685.715,47.051C1682.063,14.258 1674.757,0 1662.886,0L1540.064,0C1527.737,0 1520.431,14.258 1516.779,47.051L1477.056,370.703C1464.728,470.507 1459.249,541.796 1459.249,598.827L1459.249,975.233C1459.249,1010.877 1464.271,1026.561 1475.686,1026.561L1542.804,1026.561C1554.219,1026.561 1559.241,1010.877 1559.241,975.233Z" style="fill:white;fill-rule:nonzero;"/>
        </g>
    </g>
</svg>
